<?xml version="1.0" encoding="UTF-8" standalone="no"?>
<svg width="262px" height="297px" viewBox="0 0 262 297" version="1.1" xmlns="http://www.w3.org/2000/svg" xmlns:xlink="http://www.w3.org/1999/xlink" xmlns:sketch="http://www.bohemiancoding.com/sketch/ns">
    <!-- Generator: Sketch 3.4.3 (16618) - http://www.bohemiancoding.com/sketch -->
    <title>cells-symbol-min</title>
    <desc>Created with Sketch.</desc>
    <defs>
        <radialGradient cx="23.3013467%" cy="67.0369051%" fx="23.3013467%" fy="67.0369051%" r="86.3884269%" id="radialGradient-1">
            <stop stop-color="#3B134E" offset="23.84%"></stop>
            <stop stop-color="#FF007F" offset="64.94%"></stop>
        </radialGradient>
        <linearGradient x1="17.4317088%" y1="74.0092241%" x2="85.8715548%" y2="20.5612483%" id="linearGradient-2">
            <stop stop-color="#224FBD" offset="0%"></stop>
            <stop stop-color="#563EA4" offset="100%"></stop>
        </linearGradient>
        <linearGradient x1="49.9994086%" y1="13.293993%" x2="49.9994086%" y2="99.7408353%" id="linearGradient-3">
            <stop stop-color="#AA1B5C" offset="0%"></stop>
            <stop stop-color="#CD6793" offset="100%"></stop>
        </linearGradient>
        <linearGradient x1="0.000982994201%" y1="50.0030038%" x2="99.9995085%" y2="50.0030038%" id="linearGradient-4">
            <stop stop-color="#AA1B5C" offset="0%"></stop>
            <stop stop-color="#CD6793" offset="100%"></stop>
        </linearGradient>
        <linearGradient x1="-0.000660869198%" y1="50.0002038%" x2="100.000744%" y2="50.0002038%" id="linearGradient-5">
            <stop stop-color="#603672" offset="0%"></stop>
            <stop stop-color="#9D4E8F" offset="100%"></stop>
        </linearGradient>
        <linearGradient x1="-0.00198260959%" y1="50.0002038%" x2="99.9995236%" y2="50.0002038%" id="linearGradient-6">
            <stop stop-color="#603672" offset="0%"></stop>
            <stop stop-color="#9D4E8F" offset="100%"></stop>
        </linearGradient>
        <linearGradient x1="5.08966538e-14%" y1="50.0008954%" x2="99.9996418%" y2="50.0008954%" id="linearGradient-7">
            <stop stop-color="#73639F" offset="0%"></stop>
            <stop stop-color="#41316D" offset="100%"></stop>
        </linearGradient>
        <linearGradient x1="0.000598545912%" y1="49.9994627%" x2="100.001859%" y2="49.9994627%" id="linearGradient-8">
            <stop stop-color="#2350BE" offset="0%"></stop>
            <stop stop-color="#563EA4" offset="100%"></stop>
        </linearGradient>
        <linearGradient x1="-0.0019571205%" y1="50.0023359%" x2="99.9996131%" y2="50.0023359%" id="linearGradient-9">
            <stop stop-color="#1B2655" offset="0%"></stop>
            <stop stop-color="#3B4D93" offset="100%"></stop>
        </linearGradient>
    </defs>
    <g id="Page-1" stroke="none" stroke-width="1" fill="none" fill-rule="evenodd" sketch:type="MSPage">
        <g id="cells-symbol-min" sketch:type="MSLayerGroup">
            <g id="Page-1" sketch:type="MSShapeGroup">
                <g id="Artboard-1">
                    <g id="cells-symbol-min">
                        <g id="Page-1">
                            <g id="cells-symbol">
                                <path d="M160.753208,9.21513125 C134.519094,24.3615559 122.393852,54.5544395 128.973942,82.5996957 C144.696639,82.3644825 159.336702,72.8657886 165.009914,57.2116955 L165.015141,57.2195359 C167.445024,50.4493154 172.188491,44.4683659 178.905788,40.5899613 C193.976422,31.8877255 213.248225,37.0519624 221.950461,52.1232495 C230.652697,67.1945365 225.487806,86.4663397 210.417173,95.1679221 C203.699875,99.0463267 196.164558,100.189071 189.08464,98.909119 L189.08464,98.909119 C172.837287,96.0212234 157.416447,103.773459 149.289177,117.047325 C170.298945,136.05778 201.963218,140.309913 227.822298,125.380407 C259.901461,106.858672 270.891145,65.8414072 252.370717,33.7628976 C233.85029,1.68569474 192.832371,-9.30594969 160.753208,9.21513125 L160.753208,9.21513125 L160.753208,9.21513125 L160.753208,9.21513125 Z" id="cell-pink" fill="url(#radialGradient-1)"></path>
                                <circle id="core" fill="#3C47A2" cx="90.8047168" cy="128.114107" r="19.7716312"></circle>
                                <path d="M187.514592,98.6582249 C180.918168,97.6180598 174.489007,99.152826 174.480513,99.1286513 C158.420677,102.510495 145.532953,116.096018 143.58591,133.789279 L143.583297,133.786013 C141.905442,150.507059 132.481233,166.205581 116.816685,175.250836 C90.9576054,190.179689 57.8931604,181.319337 42.9643081,155.462217 C28.0354557,129.603791 36.8945003,96.5393458 62.7529269,81.6098401 C78.4187807,72.5658918 96.7255563,72.2542343 112.045777,79.1603557 L112.043164,79.1570889 C128.427725,86.3552668 146.755408,81.916924 157.696743,69.5525491 C157.696743,69.5525491 162.072362,64.8535116 164.468924,58.6203613 C155.842479,65.9916823 144.467306,56.9307464 144.467306,56.9307464 C116.563831,35.3009307 77.2799567,31.4342867 44.8153054,50.1781668 C1.9790579,74.9095302 -12.6989004,129.685462 12.0331163,172.52171 C36.7644796,215.358611 91.6508311,230.058783 134.487732,205.326767 C166.796228,186.673705 182.96191,151.017341 178.637253,116.131954 C178.637907,116.131954 176.338697,101.581403 187.514592,98.6582249 L187.514592,98.6582249 L187.514592,98.6582249 L187.514592,98.6582249 Z" id="cell-blue" fill="url(#linearGradient-2)"></path>
                                <g id="S-letter" transform="translate(186.863836, 259.387912)">
                                    <path d="M17.1914729,15.0830477 C13.3326693,13.7521329 9.68817117,12.8204272 9.68817117,10.8237283 L9.68817117,10.6904408 C9.68817117,9.29222892 11.0308466,8.22919584 13.4933984,8.22919584 C15.622078,8.22919584 18.3884468,9.09295105 21.2495543,10.4905096 C21.9159917,10.8237283 22.4020991,10.9557091 23.1345269,10.9557091 C25.3958407,10.9557091 27.2030622,9.22623854 27.2030622,6.96361804 C27.2030622,5.23349414 26.2752768,3.90192597 24.8130346,3.17080488 C21.3521334,1.44068097 17.3424014,0.441678157 13.6136185,0.441678157 C6.42654786,0.441678157 0.420116945,4.50041294 0.420116945,11.755434 L0.420116945,11.8880681 C0.420116945,18.8085638 6.01949831,21.137828 11.0105922,22.6013769 C14.9360395,23.7996576 18.3394441,24.5307787 18.3394441,26.7280622 L18.3394441,26.8593896 C18.3394441,28.4568794 17.2189144,29.5225259 14.2918166,29.5225259 C12.3878962,29.5225259 10.3611423,29.0468725 8.13707066,28.1034062 C8.00574328,28.0419894 7.05508985,27.5859371 6.98713937,27.5532686 C4.68139644,26.4431929 2.60367967,27.1645134 1.51908538,28.9671614 C0.5978336,30.497354 0.701066069,33.2317077 3.26358342,34.5057793 C3.78039914,34.7625538 8.84009684,37.162382 14.4041962,37.162382 C22.1218033,37.162382 28.2242796,33.7138948 28.2242796,25.7963565 L28.2242796,25.6637224 C28.2236263,19.1411291 22.1838735,16.7471812 17.1914729,15.0830477 L17.1914729,15.0830477 L17.1914729,15.0830477 L17.1914729,15.0830477 Z" id="Shape" fill="#FF007F"></path>
                                    <g id="Group">
                                        <path d="M18.3427109,26.7345959 L18.3427109,26.8659233 C18.3427109,28.4634131 17.223488,29.5290596 14.2963902,29.5290596 C12.3911631,29.5290596 10.3657159,29.0534062 8.14164425,28.1099399 C8.01031687,28.0478697 7.05966344,27.5918174 6.99171296,27.5591489 C4.68466329,26.4490732 2.60825326,27.1703937 1.52365897,28.9736951 C0.602407191,30.5038877 0.705639659,33.2382414 3.26815701,34.5116597 C3.78497273,34.7690875 8.84467043,37.1689157 14.4087698,37.1689157 C21.5115557,37.1689157 27.2416111,34.2444313 28.1119,27.6074983 L14.3107643,23.6056067 C16.6648566,24.3726632 18.3427109,25.1919892 18.3427109,26.7345959 L18.3427109,26.7345959 L18.3427109,26.7345959 L18.3427109,26.7345959 Z" id="Shape" fill="url(#linearGradient-3)"></path>
                                        <path d="M9.68817117,10.8237283 L9.68817117,10.6904408 C9.68817117,9.29222892 11.0308466,8.22919584 13.4933984,8.22919584 C15.622078,8.22919584 18.3884468,9.09295105 21.2495543,10.4905096 C21.9159917,10.8237283 22.4020991,10.9557091 23.1345269,10.9557091 C25.3958407,10.9557091 27.2030622,9.22623854 27.2030622,6.96361804 C27.2030622,5.23349414 26.2752768,3.90192597 24.8130346,3.17080488 C21.3521334,1.44068097 17.3424014,0.441678157 13.6136185,0.441678157 C7.17923016,0.441678157 1.69484192,3.69742114 0.616127962,9.58428533 L12.6649251,13.492745 C10.9021327,12.7707711 9.68817117,11.974313 9.68817117,10.8237283 L9.68817117,10.8237283 L9.68817117,10.8237283 L9.68817117,10.8237283 Z" id="Shape" fill="url(#linearGradient-4)"></path>
                                    </g>
                                </g>
                                <g id="L2-letter" transform="translate(163.342514, 259.387912)">
                                    <path d="M5.19102509,37.169569 C2.49587361,37.169569 0.247627251,34.9860063 0.247627251,32.2915082 L0.247627251,5.1165409 C0.247627251,2.42138942 2.49587361,0.23848007 5.19102509,0.23848007 C7.88486982,0.23848007 10.1331162,2.42138942 10.1331162,5.1165409 L10.1331162,32.2915082 C10.1337696,34.9860063 7.88486982,37.169569 5.19102509,37.169569 L5.19102509,37.169569 L5.19102509,37.169569 L5.19102509,37.169569 Z" id="Shape" fill="#9D4E8F"></path>
                                    <path d="M0.247627251,32.2915082 L0.247627251,5.1165409 C0.247627251,2.42138942 2.41158887,0.23848007 5.10608698,0.23848007 C7.90447092,0.23848007 10.1337696,2.32861088 10.1337696,5.1165409 C10.1337696,5.1165409 10.2755509,8.24030313 5.10870046,18.6086325 C0.382874852,28.9743485 0.247627251,32.2915082 0.247627251,32.2915082 L0.247627251,32.2915082 L0.247627251,32.2915082 L0.247627251,32.2915082 Z" id="Shape" fill="url(#linearGradient-5)"></path>
                                </g>
                                <g id="L1-letter" transform="translate(141.127932, 259.387912)">
                                    <path d="M5.16815713,37.169569 C2.47300566,37.169569 0.226066039,34.9860063 0.226066039,32.2915082 L0.226066039,5.1165409 C0.226066039,2.42138942 2.47300566,0.23848007 5.16815713,0.23848007 C7.86330861,0.23848007 10.111555,2.42138942 10.111555,5.1165409 L10.111555,32.2915082 C10.1122083,34.9860063 7.86330861,37.169569 5.16815713,37.169569 L5.16815713,37.169569 L5.16815713,37.169569 L5.16815713,37.169569 Z" id="Shape" fill="#9D4E8F"></path>
                                    <path d="M0.226066039,32.2915082 L0.226066039,5.1165409 C0.226066039,2.42138942 2.38937429,0.23848007 5.08321903,0.23848007 C7.88160297,0.23848007 10.1122083,2.32861088 10.1122083,5.1165409 C10.1122083,5.1165409 10.2526829,8.24030313 5.08713925,18.6086325 C0.36131364,28.9743485 0.226066039,32.2915082 0.226066039,32.2915082 L0.226066039,32.2915082 L0.226066039,32.2915082 L0.226066039,32.2915082 Z" id="Shape" fill="url(#linearGradient-6)"></path>
                                </g>
                                <g id="E-letter" transform="translate(92.125178, 259.387912)">
                                    <path d="M18.8150975,36.8513778 C8.75450536,36.8513778 0.571698798,28.6685713 0.571698798,18.6086325 C0.571698798,8.5486938 8.75385199,0.365887231 18.8150975,0.365887231 C28.8743828,0.365887231 37.0571894,8.5486938 37.0571894,18.6086325 C37.0571894,21.1103865 35.0291287,23.1384471 32.5280282,23.1384471 C30.0269276,23.1384471 27.9975602,21.1103865 27.9975602,18.6086325 C27.9975602,13.5443612 23.878062,9.42420967 18.8144441,9.42420967 C13.7495194,9.42420967 9.6287145,13.5443612 9.6287145,18.6086325 C9.6287145,23.6722505 13.7495194,27.7937088 18.8144441,27.7937088 C21.3142379,27.7937088 23.3436053,29.8217694 23.3436053,32.3215632 C23.3442587,34.8246239 21.3148913,36.8513778 18.8150975,36.8513778 L18.8150975,36.8513778 L18.8150975,36.8513778 L18.8150975,36.8513778 Z" id="Shape" fill="url(#linearGradient-7)"></path>
                                    <path d="M24.9352148,13.7397189 L20.0578073,13.7397189 C17.5560534,13.7397189 15.5273394,15.8723187 15.5273394,18.3740727 C15.5273394,20.8751733 17.5554,23.1384471 20.0578073,23.1384471 L32.5992455,23.1384471 C38.977444,23.1384471 36.8062953,15.4097327 36.3966323,13.7397189 L26.8515491,13.7397189 L24.9352148,13.7397189 L24.9352148,13.7397189 L24.9352148,13.7397189 L24.9352148,13.7397189 Z" id="Shape" fill="#73639F"></path>
                                </g>
                                <g id="C-letter" transform="translate(47.696014, 259.387912)">
                                    <path d="M18.5321882,36.6808482 C8.47355624,36.6808482 0.290749674,28.4980417 0.290749674,18.4394097 C0.290749674,8.38077769 8.47355624,0.197971127 18.5321882,0.197971127 C23.5317759,0.197971127 28.3693278,2.28418171 31.8040942,5.92279955 C33.5204973,7.74112841 33.4368659,10.6087696 31.6172303,12.3258261 C29.7982481,14.0422292 26.9319137,13.9599046 25.2155105,12.140269 C23.4605586,10.2801244 21.0868651,9.25629357 18.5321882,9.25629357 C13.4679169,9.25629357 9.34841874,13.3751384 9.34841874,18.4400631 C9.34841874,23.5043344 13.4679169,27.6238325 18.5321882,27.6238325 C21.0737977,27.6238325 23.438344,26.6098022 25.1900291,24.7672987 C26.9129659,22.9548501 29.7799537,22.8823261 31.5943624,24.6065696 C33.4055042,26.3314666 33.4773749,29.1984544 31.7518246,31.0109029 C28.3248986,34.6148921 23.5062945,36.6808482 18.5321882,36.6808482 L18.5321882,36.6808482 L18.5321882,36.6808482 L18.5321882,36.6808482 Z" id="Shape" fill="url(#linearGradient-8)"></path>
                                    <path d="M9.34907211,18.4394097 C9.34907211,13.374485 13.4685703,9.2556402 18.5328416,9.2556402 C21.0875185,9.2556402 23.4618653,10.2794711 25.2161639,12.1396156 C26.932567,13.9592512 29.7989015,14.0415758 31.6178837,12.3251727 C33.4375193,10.6081162 33.5211507,7.74047504 31.8047475,5.92214618 C28.3693278,2.28418171 23.5324293,0.197317757 18.5328416,0.197317757 C13.2039554,0.197317757 8.40495239,2.4939135 5.06819152,6.14951896 C3.83658896,7.49676801 4.70295765,19.9068788 12.5296775,25.3710126 L12.5296775,25.3710126 C10.5845949,23.687278 9.34907211,21.2070852 9.34907211,18.4394097 L9.34907211,18.4394097 L9.34907211,18.4394097 L9.34907211,18.4394097 Z" id="Shape" fill="url(#linearGradient-9)"></path>
                                </g>
                            </g>
                        </g>
                    </g>
                </g>
            </g>
        </g>
    </g>
</svg>